<?xml version="1.0" encoding="utf-8"?>
<!-- Generator: Adobe Illustrator 16.0.0, SVG Export Plug-In . SVG Version: 6.00 Build 0)  -->
<!DOCTYPE svg PUBLIC "-//W3C//DTD SVG 1.1//EN" "http://www.w3.org/Graphics/SVG/1.1/DTD/svg11.dtd">
<svg version="1.1" id="Layer_1" xmlns="http://www.w3.org/2000/svg" xmlns:xlink="http://www.w3.org/1999/xlink" x="0px" y="0px"
	 width="612px" height="792px" viewBox="0 0 612 792" enable-background="new 0 0 612 792" xml:space="preserve">
<title>finite-icons</title>
<path fill="#FFFFFF" d="M478.125,587.25H57.375c-10.562,0-19.125-8.562-19.125-19.125v-420.75c0-10.562,8.562-19.125,19.125-19.125
	H267.75l-76.5,76.5h-76.5v306h306v-76.5l76.5-76.5v210.375C497.25,578.688,488.688,587.25,478.125,587.25z"/>
<path fill="#FFFFFF" d="M566.076,193.864L430.842,58.63c-7.468-7.468-19.577-7.468-27.046,0l-20.014,20.017l-0.003-0.002
	L158.604,303.82c-3.586,3.587-5.602,8.451-5.602,13.523L153,452.463c0,10.581,8.544,19.177,19.125,19.24l134.324,0.797
	c5.111,0.03,10.022-1.987,13.637-5.602l245.99-245.988C573.544,213.442,573.544,201.333,566.076,193.864z M261.188,417.611
	l-54.092-54.094l188.496-188.496l54.092,54.094L261.188,417.611z"/>
<text transform="matrix(1 0 0 1 0 1199.25)" font-family="'HelveticaNeue-Bold'" font-size="191.25">Created by Doejo</text>
<text transform="matrix(1 0 0 1 0 1390.5)" font-family="'HelveticaNeue-Bold'" font-size="191.25">from the Noun Project</text>
</svg>
