<?xml version="1.0" encoding="utf-8"?>
<!-- Generator: Adobe Illustrator 16.0.0, SVG Export Plug-In . SVG Version: 6.00 Build 0)  -->
<!DOCTYPE svg PUBLIC "-//W3C//DTD SVG 1.1//EN" "http://www.w3.org/Graphics/SVG/1.1/DTD/svg11.dtd">
<svg version="1.1"
	 id="Layer_1" xmlns:inkscape="http://www.inkscape.org/namespaces/inkscape" xmlns:sodipodi="http://sodipodi.sourceforge.net/DTD/sodipodi-0.dtd" xmlns:svg="http://www.w3.org/2000/svg" xmlns:rdf="http://www.w3.org/1999/02/22-rdf-syntax-ns#" xmlns:cc="http://creativecommons.org/ns#" xmlns:dc="http://purl.org/dc/elements/1.1/"
	 xmlns="http://www.w3.org/2000/svg" xmlns:xlink="http://www.w3.org/1999/xlink" x="0px" y="0px" width="612px" height="792px"
	 viewBox="0 0 612 792" enable-background="new 0 0 612 792" xml:space="preserve">
<g transform="translate(0,-1020.3622)">
	<path fill="#FFFFFF" d="M193.155,1032.816c-14.547,0-26.559,12.012-26.559,26.559v14.717l-21.067,5.641l-26.67,7.135l-26.67,7.172
		l-26.708,7.134l-26.67,7.172c-14.054,3.764-22.554,18.446-18.789,32.498l44.562,166.261c-15.639,6.292-26.819,21.376-26.819,39.034
		c-0.158,42.677,0.112,85.335,0.112,127.861h19.125c-0.138-42.526-0.112-85.185-0.112-127.861c0-12.794,10.375-23.047,23.906-23.047
		h444.806c13.531,0,23.869,10.252,23.869,23.047v94.691H372.938l-28.314,27.754v26.222v39.445l28.314,27.754h176.533v43.629
		c0,12.792-10.338,23.047-23.869,23.047H80.796c-13.532,0-23.906-10.255-23.906-23.047c-0.113-26.551,0.112-52.856,0.112-79.302
		v-33.395H37.876v33.395c-0.078,26.424-0.112,52.762-0.112,79.302c0,23.326,19.497,42.172,43.031,42.172h444.806
		c23.533,0,42.994-18.846,42.994-42.172v-259.495c0-18.18-11.881-33.509-28.24-39.445l44.451-165.812
		c3.766-14.051-4.735-28.733-18.789-32.497l-26.67-7.172l-26.708-7.135l-26.671-7.172l-26.67-7.135l-18.564-4.968v-15.427
		c0-14.547-12.012-26.559-26.559-26.559H193.155z M193.155,1051.941h221.021c4.289,0,7.434,3.159,7.434,7.434v244.591h-14.867
		v-207.088c0-5.281-4.281-9.562-9.562-9.562c-6.528,0-11.691-5.136-11.691-11.841c-0.001-5.281-4.281-9.562-9.562-9.562H231.405
		c-5.281,0-9.562,4.282-9.562,9.562c0,6.705-5.126,11.841-11.654,11.841c-5.281,0-9.562,4.281-9.562,9.562v207.088h-14.904v-244.591
		C185.722,1055.1,188.866,1051.941,193.155,1051.941z M237.008,1085.036h133.314c3.119,8.505,8.829,14.248,17.295,17.407v201.522
		h-19.61c10.079-26.41,3.281-57.112-18.714-76.463c-13.004-11.412-29.295-17.108-45.571-17.108
		c-16.265,0-32.535,5.711-45.534,17.108c-22.05,19.309-28.937,50.022-18.901,76.463h-19.536v-201.522
		C228.21,1099.282,233.892,1093.537,237.008,1085.036z M166.597,1093.89v14.456c-27.422,7.346-54.871,14.693-82.29,22.039
		c-5.192,1.396-8.214,6.797-6.686,11.953c1.582,5.317-2.673,12.905-8.031,14.194c-5.234,1.248-8.409,6.567-7.022,11.767
		c12.117,45.223,24.227,90.443,36.345,135.668H83.56l-45.048-168.054c-1.106-4.129,1.126-8.007,5.267-9.114l26.67-7.135l26.67-7.172
		l26.708-7.134l26.67-7.134L166.597,1093.89z M440.734,1094.599l13.597,3.661l26.67,7.135l26.708,7.134l26.67,7.172l26.671,7.134
		c4.141,1.109,6.373,4.985,5.267,9.114l-45.011,168.017h-15.39c12.115-45.214,24.23-90.421,36.345-135.631
		c1.387-5.199-1.788-10.519-7.022-11.767c-5.357-1.281-9.612-8.877-8.031-14.194c1.528-5.155-1.493-10.557-6.686-11.953
		c-26.585-7.122-53.197-14.242-79.787-21.366V1094.599z M303.684,1117.945c-9.379,0-16.996,7.637-16.996,17.033
		c0,9.399,7.617,16.921,16.996,16.921c9.384,0,16.996-7.521,16.996-16.921C320.68,1125.582,313.068,1117.945,303.684,1117.945z
		 M166.597,1128.142v33.17c-7.145,2.28-12.31,8.733-12.625,16.323c-0.338,8.1,4.824,15.518,12.551,17.967h0.075v68.282
		c-0.351,0.214-0.688,0.452-1.009,0.709c-12.236,10.035-20.292,24.021-23.495,39.371h-23.346
		c-12.081-45.087-24.152-90.174-36.233-135.257c7.47-5.213,11.5-12.217,12.215-21.292
		C118.685,1140.998,142.642,1134.568,166.597,1128.142z M440.734,1128.852c23.12,6.204,46.243,12.405,69.365,18.602
		c0.715,9.075,4.745,16.078,12.215,21.292c-12.078,45.074-24.156,90.144-36.233,135.22h-23.346
		c-3.062-14.675-10.64-27.996-22.001-37.914v-71.719c6.275-3.131,10.422-9.533,10.123-16.697
		c-0.278-6.668-4.321-12.431-10.123-15.314V1128.852z M303.722,1229.408c11.747,0,23.495,4.18,32.945,12.476
		c17.943,15.784,21.896,41.627,10.235,62.082h-6.238v-45.348h-0.112h-9.562v9.712c0,8.934-4.203,13.465-9.45,15.091v-24.803h-9.562
		v24.803c-5.25-1.625-9.488-6.147-9.488-15.091v-3.062v-6.574h-9.562v2.689l-28.762,29.21l6.798,6.724l22.599-22.897
		c2.174,10.381,9.894,17.029,18.415,18.863v10.684h-51.585c-11.609-20.483-7.593-46.34,10.384-62.082
		C280.227,1233.588,291.974,1229.408,303.722,1229.408z M331.102,1288.688v15.278h-9.562v-10.684
		C324.979,1292.536,328.232,1290.937,331.102,1288.688z M166.597,1292.573v11.393h-5.08
		C162.698,1299.945,164.464,1296.161,166.597,1292.573z M440.734,1297.503c0.958,2.117,1.921,4.221,2.577,6.462h-2.577V1297.503z
		 M111.164,1339.75c-11.156,0-21.241,2.938-28.276,9.974c-7.035,7.034-9.974,17.119-9.974,28.276v28.688
		c-0.183,12.932,19.308,12.932,19.125,0V1378c0-7.969,1.843-12.228,4.37-14.754c2.527-2.528,6.786-4.371,14.755-4.371h258.188
		c12.932,0.184,12.932-19.308,0-19.125H111.164z M380.744,1459.954h167.867v82.925H380.744l-16.996-16.66v-31.414v-18.191
		L380.744,1459.954z M405.174,1473.962c-15.026,0-27.38,12.393-27.381,27.417c0,15.028,12.354,27.417,27.381,27.417
		c15.026,0,27.418-12.389,27.417-27.417C432.591,1486.354,420.199,1473.962,405.174,1473.962z M405.174,1493.087
		c4.69,0,8.292,3.603,8.292,8.292c0.001,4.691-3.602,8.292-8.292,8.292s-8.256-3.601-8.256-8.292
		C396.919,1496.689,400.483,1493.087,405.174,1493.087z"/>
</g>
<text transform="matrix(1 0 0 1 0 912.375)" fill="#FFFFFF" font-family="'HelveticaNeue-Bold'" font-size="95.625">Created by Chameleon Design</text>
<text transform="matrix(1 0 0 1 0 1008)" fill="#FFFFFF" font-family="'HelveticaNeue-Bold'" font-size="95.625">from the Noun Project</text>
</svg>
